<?xml version="1.0" standalone="no"?>
<!DOCTYPE svg PUBLIC "-//W3C//DTD SVG 20010904//EN"
 "http://www.w3.org/TR/2001/REC-SVG-20010904/DTD/svg10.dtd">
<svg version="1.0" xmlns="http://www.w3.org/2000/svg"
 width="340.000000pt" height="340.000000pt" viewBox="0 0 340.000000 340.000000"
 preserveAspectRatio="xMidYMid meet">

<g transform="translate(0.000000,340.000000) scale(0.100000,-0.100000)"
fill="#000000" stroke="none">
<path d="M1015 2872 l-670 -387 0 -790 0 -789 670 -388 c369 -213 677 -387
685 -387 8 0 316 174 685 388 l670 387 0 789 0 790 -670 387 c-369 213 -677
387 -685 387 -8 0 -316 -174 -685 -387z m1088 -62 l48 -31 -3 -66 -3 -66 -55
-30 -55 -30 -50 30 -50 29 -3 70 -3 69 48 27 c27 15 55 27 63 28 8 0 37 -14
63 -30z m-711 -7 c18 -21 32 -179 17 -189 -6 -3 -16 0 -24 6 -12 10 -18 10
-29 1 -8 -7 -32 -11 -53 -9 -48 4 -71 40 -52 82 13 29 38 40 87 38 25 -1 32 3
32 18 0 28 -31 41 -71 30 -19 -6 -35 -10 -36 -10 -2 0 -3 9 -3 19 0 33 106 44
132 14z m76 4 c6 -7 16 -35 23 -62 6 -28 15 -53 18 -58 4 -4 13 22 20 59 21
105 60 99 81 -13 14 -73 21 -70 41 21 12 56 31 78 49 60 10 -10 -40 -178 -58
-196 -16 -16 -39 -3 -46 29 -4 15 -12 46 -18 68 l-11 40 -16 -70 c-15 -63 -19
-70 -40 -70 -21 0 -27 10 -52 90 -16 50 -27 96 -24 103 6 16 20 15 33 -1z
m376 7 c9 -3 16 -13 16 -21 0 -12 -8 -13 -38 -8 -28 4 -42 2 -51 -9 -13 -16
-8 -20 64 -57 36 -18 45 -61 19 -90 -28 -31 -134 -25 -134 8 0 11 9 13 43 8
78 -11 93 35 18 55 -60 16 -79 62 -41 100 20 20 71 27 104 14z m-19 -263 c3
-5 -5 -11 -17 -13 -15 -2 -24 -11 -26 -25 -3 -21 1 -23 42 -23 l46 0 0 -64 c0
-36 -4 -68 -10 -71 -6 -4 -10 17 -10 54 l0 61 -35 0 -35 0 0 -55 c0 -30 -4
-55 -10 -55 -5 0 -10 24 -10 54 0 34 -5 57 -12 60 -10 5 -10 7 0 12 6 3 12 16
12 28 0 12 5 27 12 34 14 14 44 16 53 3z m325 -98 l0 -98 -38 1 c-57 1 -59 2
-71 32 -23 56 16 118 66 106 20 -5 23 -3 23 25 0 17 5 31 10 31 6 0 10 -39 10
-97z m-435 77 c3 -5 -1 -10 -9 -10 -9 0 -16 5 -16 10 0 6 4 10 9 10 6 0 13 -4
16 -10z m155 0 c0 -5 -7 -10 -16 -10 -8 0 -12 5 -9 10 3 6 10 10 16 10 5 0 9
-4 9 -10z m-240 -19 c0 -12 8 -21 23 -24 l22 -4 -22 -8 c-20 -6 -23 -14 -23
-56 0 -44 2 -49 22 -49 16 0 19 -3 11 -11 -6 -6 -20 -8 -32 -4 -18 5 -21 14
-21 57 0 37 -5 54 -17 64 -17 13 -17 13 0 14 10 0 17 8 17 20 0 11 5 20 10 20
6 0 10 -9 10 -19z m-182 -27 c12 -8 22 -26 22 -40 0 -22 -4 -24 -45 -24 -32 0
-45 -4 -45 -14 0 -23 28 -39 60 -34 19 3 29 1 27 -6 -6 -18 -56 -19 -83 -1
-41 26 -30 112 16 128 23 8 24 8 48 -9z m540 0 c12 -8 22 -26 22 -40 0 -22 -4
-24 -45 -24 -32 0 -45 -4 -45 -14 0 -23 28 -39 60 -34 32 5 41 -6 14 -16 -52
-20 -94 8 -94 64 0 38 14 64 40 73 23 8 24 8 48 -9z m-648 -5 c0 -6 -7 -8 -16
-5 -30 12 -54 -12 -54 -53 0 -40 11 -51 51 -51 11 0 17 -4 14 -10 -11 -17 -51
-11 -70 10 -21 24 -24 82 -5 105 14 17 80 20 80 4z m230 1 c0 -5 -10 -10 -22
-12 -20 -3 -23 -10 -26 -55 -4 -75 -22 -66 -22 10 l0 64 35 1 c19 1 35 -3 35
-8z m140 -61 c0 -44 -4 -68 -10 -64 -5 3 -10 35 -10 71 0 36 4 64 10 64 6 0
10 -30 10 -71z m810 -219 c0 -7 -280 -10 -820 -10 -540 0 -820 3 -820 10 0 7
280 10 820 10 540 0 820 -3 820 -10z m-646 -156 c20 -19 20 -28 1 -44 -18 -15
-45 -10 -59 13 -9 15 -7 21 8 33 25 18 31 18 50 -2z m-454 -99 c0 -89 2 -105
16 -105 10 0 14 -7 12 -22 -2 -18 -11 -24 -35 -26 -50 -5 -63 23 -63 144 0 55
3 104 7 107 3 4 19 7 35 7 l28 0 0 -105z m-320 80 c4 -3 5 -15 3 -27 -4 -21
-9 -23 -49 -20 -55 5 -59 -13 -6 -35 52 -21 72 -42 72 -73 0 -42 -29 -70 -77
-77 -63 -8 -93 2 -93 33 0 23 3 26 38 23 77 -4 84 10 18 40 -67 29 -86 80 -43
118 12 11 29 23 37 26 15 6 87 0 100 -8z m648 -32 c2 -15 10 -23 23 -23 14 0
19 -7 19 -25 0 -18 -5 -25 -20 -25 -16 0 -20 -7 -20 -36 0 -27 5 -37 20 -41
24 -6 27 -38 4 -47 -54 -21 -94 13 -94 79 0 25 -4 45 -10 45 -5 0 -10 11 -10
25 0 14 5 25 10 25 6 0 15 12 20 26 13 33 53 30 58 -3z m-479 -24 c39 -14 51
-35 51 -89 0 -85 -90 -122 -151 -61 -47 47 -34 127 25 151 29 12 38 12 75 -1z
m770 0 c39 -14 51 -35 51 -89 0 -86 -90 -122 -152 -60 -27 27 -30 36 -25 71 6
45 28 76 61 82 11 2 24 5 27 6 3 0 20 -4 38 -10z m241 -9 c16 -16 20 -33 20
-90 l0 -70 -35 0 -34 0 -3 63 c-2 47 -7 62 -18 62 -11 0 -16 -15 -18 -62 l-3
-63 -34 0 -35 0 0 86 0 87 38 -5 c20 -3 46 -2 57 3 32 12 44 10 65 -11z m174
0 c18 -18 -2 -37 -33 -32 -41 6 -40 -11 2 -29 42 -18 50 -68 15 -93 -27 -19
-78 -21 -102 -3 -30 22 -15 42 27 39 45 -4 47 2 7 23 -56 29 -60 83 -7 105 23
10 76 3 91 -10z m-914 -55 c0 -51 3 -65 15 -65 12 0 15 14 15 65 l0 65 35 0
35 0 0 -85 0 -86 -37 1 c-21 0 -52 -2 -69 -6 -49 -10 -64 13 -64 102 l0 74 35
0 35 0 0 -65z m340 -20 l0 -85 -30 0 -30 0 0 85 0 85 30 0 30 0 0 -85z m-85
-195 c0 -20 -6 -26 -28 -28 -29 -4 -44 16 -33 44 4 10 15 14 33 12 22 -2 28
-8 28 -28z m-205 -18 c0 -38 0 -38 35 -34 55 7 65 -9 65 -99 l0 -79 -30 0
c-29 0 -29 1 -32 62 -2 50 -6 63 -20 66 -16 3 -18 -5 -18 -62 l0 -66 -35 0
-35 0 0 125 0 125 35 0 c34 0 35 -1 35 -38z m-438 -82 c20 -58 37 -111 37
-117 1 -8 -12 -13 -34 -13 -29 0 -36 4 -41 25 -5 20 -12 25 -39 25 -27 0 -34
-5 -39 -25 -5 -21 -12 -25 -41 -25 -19 0 -35 4 -35 9 0 5 16 53 35 107 20 55
38 105 40 112 3 9 18 12 42 10 l37 -3 38 -105z m758 70 c0 -13 7 -20 20 -20
15 0 20 -7 20 -25 0 -18 -5 -25 -20 -25 -17 0 -20 -7 -20 -40 0 -34 3 -40 21
-40 15 0 20 -5 17 -22 -2 -18 -11 -24 -36 -26 -50 -5 -72 20 -72 80 0 26 -4
48 -10 48 -5 0 -10 9 -10 20 0 11 4 20 10 20 5 0 12 11 16 25 5 19 13 25 35
25 22 0 29 -5 29 -20z m480 1 c0 -13 8 -21 23 -23 31 -4 30 -42 -1 -46 -20 -3
-23 -8 -20 -40 2 -30 7 -38 26 -40 17 -3 22 -9 20 -25 -2 -17 -11 -23 -35 -25
-56 -6 -73 11 -73 73 0 42 -3 55 -15 55 -8 0 -15 9 -15 20 0 11 5 20 10 20 6
0 15 11 20 25 12 32 60 36 60 6z m-1117 -33 c4 -10 7 -10 18 0 25 23 49 15 49
-18 0 -27 -3 -30 -30 -30 l-30 0 0 -60 0 -60 -35 0 -35 0 0 90 0 90 29 0 c16
0 31 -6 34 -12z m215 -15 c3 -18 -2 -22 -30 -25 -30 -3 -33 -6 -33 -38 0 -32
3 -35 33 -38 28 -3 33 -7 30 -25 -2 -18 -11 -23 -45 -25 -58 -4 -93 29 -93 88
0 59 35 92 93 88 34 -2 43 -7 45 -25z m312 -63 l0 -90 -35 0 -35 0 0 90 0 90
35 0 35 0 0 -90z m311 69 c14 -14 19 -30 17 -52 -3 -31 -5 -32 -50 -35 -27 -2
-48 -7 -48 -11 0 -13 41 -21 68 -14 21 5 23 2 20 -18 -3 -21 -9 -24 -55 -27
-42 -2 -56 1 -72 17 -30 30 -29 106 1 138 28 30 89 32 119 2z m177 -6 c3 -18
-2 -22 -30 -25 -30 -3 -33 -6 -33 -38 0 -32 3 -35 33 -38 28 -3 33 -7 30 -25
-2 -18 -11 -23 -45 -25 -77 -6 -116 64 -78 138 18 34 29 39 80 37 33 -2 41 -6
43 -24z m-175 -340 c-227 -2 -599 -2 -825 0 -227 1 -42 2 412 2 454 0 639 -1
413 -2z m-883 -189 c0 -7 -12 -14 -27 -16 l-28 -3 30 -15 c17 -9 31 -25 33
-37 4 -29 -39 -58 -73 -49 -36 9 -32 34 8 38 l32 3 -30 15 c-38 19 -41 59 -7
76 28 14 62 7 62 -12z m160 0 c0 -7 -12 -14 -27 -16 l-28 -3 30 -15 c42 -21
47 -66 9 -81 -34 -12 -74 -4 -74 16 0 8 13 15 33 17 l32 3 -30 15 c-38 19 -41
59 -7 76 28 14 62 7 62 -12z m195 -7 c23 -33 19 -73 -11 -96 -15 -12 -35 -21
-44 -21 -25 0 -58 31 -65 60 -15 71 79 116 120 57z m-524 -32 c23 -66 23 -75
-1 -75 -11 0 -20 5 -20 10 0 6 -9 10 -19 10 -11 0 -23 -4 -26 -10 -3 -5 -15
-10 -25 -10 -17 0 -17 3 3 65 19 59 24 66 46 63 19 -2 28 -13 42 -53z m709 41
c0 -9 -12 -16 -27 -18 -24 -3 -28 -8 -28 -33 0 -25 4 -30 28 -33 31 -4 37 -28
8 -37 -26 -8 -68 10 -81 35 -12 23 -6 66 12 87 15 18 88 17 88 -1z m100 -51
c0 -58 -2 -65 -20 -65 -18 0 -20 7 -20 65 0 58 2 65 20 65 18 0 20 -7 20 -65z
m177 -2 l22 -63 -24 0 c-14 0 -25 5 -25 10 0 6 -9 10 -20 10 -11 0 -20 -4 -20
-10 0 -5 -9 -10 -20 -10 -26 0 -26 5 15 118 3 7 15 12 27 10 18 -2 28 -17 45
-65z m183 52 c0 -8 -9 -15 -20 -15 -17 0 -20 -7 -20 -50 0 -43 -3 -50 -20 -50
-17 0 -20 7 -20 49 0 41 -3 50 -21 54 -38 10 -9 27 47 27 41 0 54 -4 54 -15z
m158 3 c-3 -7 -17 -14 -31 -16 -34 -4 -35 -22 -2 -22 16 0 25 -6 25 -15 0 -9
-9 -15 -25 -15 -33 0 -32 -18 2 -22 14 -2 28 -9 31 -15 2 -9 -11 -13 -47 -13
l-51 0 0 65 0 65 51 0 c36 0 49 -4 47 -12z"/>
<path d="M1294 2685 c-9 -23 3 -45 25 -45 23 0 51 25 51 46 0 20 -69 19 -76
-1z"/>
<path d="M2064 2454 c-25 -38 -9 -79 31 -79 28 0 30 3 33 44 5 63 -33 84 -64
35z"/>
<path d="M1398 2469 c-30 -17 -21 -34 17 -34 26 0 35 4 35 16 0 9 -7 20 -16
23 -19 7 -15 8 -36 -5z"/>
<path d="M1932 2468 c-23 -23 -14 -39 23 -36 25 1 35 7 35 19 0 26 -38 37 -58
17z"/>
<path d="M1214 1916 c-3 -8 -4 -27 -2 -43 4 -37 33 -43 42 -8 11 42 -26 88
-40 51z"/>
<path d="M1984 1907 c-8 -36 -1 -61 18 -65 21 -4 36 43 21 66 -16 26 -32 25
-39 -1z"/>
<path d="M1067 1606 c-11 -29 -8 -46 8 -46 16 0 18 14 6 44 -7 18 -8 18 -14 2z"/>
<path d="M2037 1594 c-13 -13 -7 -24 14 -24 11 0 19 5 17 12 -5 14 -22 21 -31
12z"/>
<path d="M1510 1035 c0 -32 3 -36 23 -33 17 2 22 10 22 33 0 23 -5 31 -22 33
-20 3 -23 -1 -23 -33z"/>
<path d="M1010 1035 c0 -8 4 -15 10 -15 5 0 7 7 4 15 -4 8 -8 15 -10 15 -2 0
-4 -7 -4 -15z"/>
<path d="M1990 1035 c0 -8 5 -15 10 -15 6 0 10 7 10 15 0 8 -4 15 -10 15 -5 0
-10 -7 -10 -15z"/>
</g>
</svg>
