<?xml version="1.0" encoding="UTF-8"?>
<svg viewBox="-3.74 -58.28 279.66 58.28" xmlns="http://www.w3.org/2000/svg" xmlnsBx="https://boxy-svg.com">
<path d="m110.54-50h-13.604l-16.941 42.409h10.48l2.97-7.539h11.364l1.252 7.539h11.363l-6.884-42.409zm-8.652 13.047 1.516 12.858h-6.363l4.589-12.858h0.258zm57.494-11.839c-1.252-0.801-2.657-1.208-4.221-1.208h-19.599l-5.056 42.409h19.911c2.259 0 4.253-0.64 5.971-1.914 1.718-1.281 3.049-2.961 3.988-5.043 0.939-2.081 1.405-4.249 1.405-6.52 0-4.489-1.896-7.291-5.682-8.404l0.056-0.248c2.049-0.706 3.761-1.935 5.129-3.711 1.375-1.768 2.062-4.286 2.062-7.539 0-1.695-0.35-3.216-1.043-4.577-0.694-1.361-1.669-2.445-2.921-3.245zm-14.855 7.822h5.995c0.662 0 1.202 0.248 1.614 0.743 0.417 0.494 0.625 1.127 0.625 1.913l-0.104 1.485c-0.031 0.822-0.362 1.543-0.988 2.161-0.626 0.619-1.288 0.931-1.982 0.931h-5.995l0.835-7.233zm-1.927 16.257h6.621c0.657 0 1.196 0.247 1.614 0.742 0.417 0.495 0.626 1.135 0.626 1.914l-0.105 1.55c-0.037 0.822-0.362 1.542-0.988 2.161-0.625 0.618-1.288 0.924-1.982 0.924h-6.62l0.834-7.291zm64.428-25.287h-26.845l-5.056 42.409h26.845v-10.137h-14.911l0.835-6.862h14.493l1.092-9.459h-14.487l0.78-6.178h15.063l2.191-9.773zm37.975 2.103c-2.067-1.397-4.405-2.103-7.013-2.103h-16.107l-5.056 42.409h16.107c3.264 0 6.167-0.815 8.707-2.445 2.534-1.623 4.577-3.842 6.124-6.644 1.546-2.801 2.546-5.952 2.994-9.46l0.681-5.312c0.104-0.866 0.153-1.731 0.153-2.597 0-2.969-0.582-5.669-1.742-8.1-1.166-2.43-2.78-4.344-4.848-5.748zm-13.216 7.546h4.012c1.32 0 2.406 0.509 3.259 1.543 0.853 1.033 1.276 2.306 1.276 3.834l-1.301 11.374c-0.209 1.812-0.828 3.296-1.853 4.446-1.025 1.157-2.387 1.732-4.093 1.732h-4.013l2.713-22.929z" fill="#f5bd5c" style=""/>
<g transform="matrix(.76923 0 0 .73855 -4.6154 -64.272)" fill="#f5bd5c" style="" bxOrigin="0 0.947638">
<path d="m80.3 56.5-2.2-4.8h2.7L80.3 28l-5.1 7.7-.1-8.3h-.9l-.2 10-1.6 2.4-12.8-27.2v-1.4h-.9v1.3l-1.3 3.9c-.8.1-1.7.2-2.3.1-7-1.6-14.4 4.8-16.5 14.2C37 38 41.4 45 46.5 49.6l-1.6 4.8-12.7-26.2v-.8h-.4l-.1-.2h-.2l-.1.2h-.1v.3l-.3.8c-.6 0-1.3.2-1.8.1-4.7-1.1-9.7 3.2-11.1 9.6-.9 4 .8 7.7 3.3 10.7l-3.6 7.7h.1H6v.8h11.5l.1 1.1c5.4 0 .3.2 5.8.2 8.7 0-5.8 20.2 25.5 20.2 21.7 0 30.7-1 30.7-11.1 0-6.7 4.4-6.1 4.4-6.1v-5h-3.7zM25.5 38.9c.9-4.3 2.4-8.4 5.2-9.8l-5.5 11.6c.1-.7.2-1.2.3-1.8zm5.4 17.6h-13l3.6-7.6c1.5 1.7 3.2 3.2 4.8 4.2 1.2.7 0 0 3.8.5-3.3-1.5-5.2-7.4-4.9-12.5L30.9 29c.1-.1.3-.1.4-.2l-.4 27.7zm.4-28h-.2l.2-.4v.4zm18.3 3.3C51 25.6 53 19.6 57 17.4l-7.7 23.4c-.4-3.1-.3-6.2.3-9zm-9.7 29.3c-6.5 0-7.2-4.6-7.2-4.6h-.3l-.2-27.4 10 32h-2.3zm2.5 0L32.2 28.6l12.6 26-2.1 6.5h-.3zm.4 0 2.1-6.3 3.1 6.3h-5.2zm15.2 0H48h.1L45 54.6l1.6-4.9c1.4 1.2 2.8 2.3 4.2 3.2 1.7 1.1 0 0 5.6.7-3.6-1.7-6.1-6.9-7-12.5l7.8-23.8c.4-.2.9-.4 1.3-.5L58 61.1zm.6-44.6c-.3-.1-.7-.1-1.1-.1l1.1-3.4v3.5zm15.1 40h-10c0 2.8-3.1 4.6-3.1 4.6h-.3L59.6 13l12.8 27.1-7.5 11.5 8.9.2-.1 4.7zm1.7 0v-4.8H78l2.3 4.8h-4.9z"/>
<path d="M58 12.6v-1.4l-3.5.4.3.4-.5.1z"/>
</g>
</svg>
