<?xml version="1.0" encoding="utf-8"?>
<svg viewBox="-3.74 -58.28 279.66 58.28" xmlnsbx="https://boxy-svg.com" xmlns="http://www.w3.org/2000/svg">
  <defs>
    <filter id="shadow">
        <feDropShadow dx="-.5" dy="-1" stdDeviation="0" flood-color="#f5ebeb"></feDropShadow>
        <feDropShadow dx=".5" dy="-1" stdDeviation="0" flood-color="#f5ebeb"></feDropShadow>
        <feDropShadow dx=".5" dy=".5" stdDeviation="0" flood-color="#f5ebeb"></feDropShadow>
        <feDropShadow dx="-.5" dy=".5" stdDeviation="0" flood-color="#f5ebeb"></feDropShadow>
    </filter>
  </defs>
  <g filter="url(#shadow)">
    <path d="m110.54-50h-13.604l-16.941 42.409h10.48l2.97-7.539h11.364l1.252 7.539h11.363l-6.884-42.409zm-8.652 13.047 1.516 12.858h-6.363l4.589-12.858h0.258zm57.494-11.839c-1.252-0.801-2.657-1.208-4.221-1.208h-19.599l-5.056 42.409h19.911c2.259 0 4.253-0.64 5.971-1.914 1.718-1.281 3.049-2.961 3.988-5.043 0.939-2.081 1.405-4.249 1.405-6.52 0-4.489-1.896-7.291-5.682-8.404l0.056-0.248c2.049-0.706 3.761-1.935 5.129-3.711 1.375-1.768 2.062-4.286 2.062-7.539 0-1.695-0.35-3.216-1.043-4.577-0.694-1.361-1.669-2.445-2.921-3.245zm-14.855 7.822h5.995c0.662 0 1.202 0.248 1.614 0.743 0.417 0.494 0.625 1.127 0.625 1.913l-0.104 1.485c-0.031 0.822-0.362 1.543-0.988 2.161-0.626 0.619-1.288 0.931-1.982 0.931h-5.995l0.835-7.233zm-1.927 16.257h6.621c0.657 0 1.196 0.247 1.614 0.742 0.417 0.495 0.626 1.135 0.626 1.914l-0.105 1.55c-0.037 0.822-0.362 1.542-0.988 2.161-0.625 0.618-1.288 0.924-1.982 0.924h-6.62l0.834-7.291zm64.428-25.287h-26.845l-5.056 42.409h26.845v-10.137h-14.911l0.835-6.862h14.493l1.092-9.459h-14.487l0.78-6.178h15.063l2.191-9.773zm37.975 2.103c-2.067-1.397-4.405-2.103-7.013-2.103h-16.107l-5.056 42.409h16.107c3.264 0 6.167-0.815 8.707-2.445 2.534-1.623 4.577-3.842 6.124-6.644 1.546-2.801 2.546-5.952 2.994-9.46l0.681-5.312c0.104-0.866 0.153-1.731 0.153-2.597 0-2.969-0.582-5.669-1.742-8.1-1.166-2.43-2.78-4.344-4.848-5.748zm-13.216 7.546h4.012c1.32 0 2.406 0.509 3.259 1.543 0.853 1.033 1.276 2.306 1.276 3.834l-1.301 11.374c-0.209 1.812-0.828 3.296-1.853 4.446-1.025 1.157-2.387 1.732-4.093 1.732h-4.013l2.713-22.929z"
      style="fill: #2eb8b8;"/>
  </g>
</svg>