<svg xmlns="http://www.w3.org/2000/svg" viewBox="-3.74 -58.28 279.66 58.28"><path d="M46.04-58.28H23.87L-3.74 0h17.08l4.84-10.36H36.7L38.74 0h18.52Zm-14.1 17.93 2.47 17.67H24.04l7.48-17.67Zm93.7-16.27c-2.04-1.1-4.33-1.66-6.88-1.66H86.82L78.58 0h32.45c3.68 0 6.93-.88 9.73-2.63 2.8-1.76 4.97-4.07 6.5-6.93 1.53-2.86 2.29-5.84 2.29-8.96 0-6.17-3.09-10.02-9.26-11.55l.09-.34c3.34-.97 6.13-2.66 8.36-5.1 2.24-2.43 3.36-5.89 3.36-10.36 0-2.33-.57-4.42-1.7-6.29s-2.72-3.36-4.76-4.46Zm-24.21 10.75h9.77c1.08 0 1.96.34 2.63 1.02.68.68 1.02 1.55 1.02 2.63l-.17 2.04c-.05 1.13-.59 2.12-1.61 2.97-1.02.85-2.1 1.28-3.23 1.28h-9.77Zm-3.14 22.34h10.79c1.07 0 1.95.34 2.63 1.02.68.68 1.02 1.56 1.02 2.63l-.17 2.13c-.06 1.13-.59 2.12-1.61 2.97-1.02.85-2.1 1.27-3.23 1.27H96.93Zm105-34.75h-43.75L151.3 0h43.75v-13.93h-24.3l1.36-9.43h23.62l1.78-13H173.9l1.27-8.49h24.55Zm61.89 2.89c-3.37-1.92-7.18-2.89-11.43-2.89H227.5L219.26 0h26.25c5.32 0 10.05-1.12 14.19-3.36 4.13-2.23 7.46-5.28 9.98-9.13 2.52-3.85 4.15-8.18 4.88-13l1.11-7.3c.17-1.19.25-2.38.25-3.57 0-4.08-.95-7.79-2.84-11.13-1.9-3.34-4.53-5.97-7.9-7.9Zm-21.54 10.37h6.54c2.15 0 3.92.7 5.31 2.12 1.39 1.42 2.08 3.17 2.08 5.27L255.45-22c-.34 2.49-1.35 4.53-3.02 6.11-1.67 1.59-3.89 2.38-6.67 2.38h-6.54Z" fill="#f5bd5c"/></svg>