<svg id="Layer_1" data-name="Layer 1" xmlns="http://www.w3.org/2000/svg" viewBox="0 0 400 300" width="406" height="306" class="illustration styles_illustrationTablet__1DWOa"><title>#81_finance analysis_twocolour</title><ellipse cx="196.25" cy="252.34" rx="138.4" ry="19.34" fill="#e6e6e6" opacity="0.45"></ellipse><rect x="110.95" y="51.14" width="156.7" height="199.52" fill="#c9c9c9"></rect><rect x="127.99" y="65.79" width="120.32" height="42.07" fill="#fff"></rect><rect x="189.55" y="118.26" width="25.53" height="21.58" fill="#fff" opacity="0.6"></rect><path d="M134.87,79s6,1.42,4.1,11.45-6,15.36-4.27,19.36,25-3.34,39,16.66,26,45.34,2.33,43.34-33,3.42-32.33,19.87,26.55,61,26.55,61H112l3.52-78.5,13.52-86.82Z" opacity="0.14"></path><rect x="156.71" y="118.26" width="25.53" height="21.58" fill="#fff" opacity="0.6"></rect><rect x="122.39" y="118.26" width="25.53" height="21.58" fill="#fff"></rect><rect x="189.55" y="150.59" width="25.53" height="21.58" fill="#fff" opacity="0.6"></rect><rect x="156.71" y="150.59" width="25.53" height="21.58" fill="#fff" opacity="0.6"></rect><rect x="122.39" y="150.59" width="25.53" height="21.58" fill="#fff" opacity="0.6"></rect><rect x="189.28" y="181.79" width="25.53" height="21.58" fill="#fff" opacity="0.6"></rect><rect x="156.44" y="181.79" width="25.53" height="21.58" fill="#fff" opacity="0.6"></rect><rect x="156.44" y="211.12" width="25.53" height="21.58" fill="#fff" opacity="0.6"></rect><rect x="122.12" y="181.79" width="25.53" height="21.58" fill="#fff" opacity="0.6"></rect><path d="M151.09,113s39.67,30.86,28.9,56.85a7.81,7.81,0,0,1-13.37,1.87L146.9,146.39Z" fill="#68e1fd"></path><path d="M151.09,113s39.67,30.86,28.9,56.85a7.81,7.81,0,0,1-13.37,1.87L146.9,146.39Z" fill="#fff" opacity="0.46"></path><path d="M150.33,246.66s1.4,2.53,3.86,2.34,3.49,2.09,1.4,3.06-8.17-.92-8.17-.92l-.52-4.48Z" fill="#68e1fd"></path><path d="M112.12,246.66s1.4,2.53,3.86,2.34,3.49,2.09,1.4,3.06-8.16-.92-8.16-.92l-.53-4.48Z" fill="#68e1fd"></path><path d="M132.58,87.4a31,31,0,0,1-.19,8.28,2.5,2.5,0,0,1-3,1.89,5.54,5.54,0,0,1-4.43-4l-1.6-4.32a4.47,4.47,0,0,1,1.85-4.83C128,82.28,132.39,84.37,132.58,87.4Z" fill="#f4a28c"></path><polygon points="124.27 90.43 120.23 106.26 129.12 107.86 128.49 95.69 124.27 90.43" fill="#f4a28c"></polygon><path d="M122.81,93.08h0a.46.46,0,0,0,.37.45A3.33,3.33,0,0,0,126.87,92a4.16,4.16,0,0,0-.12-4.56,19.59,19.59,0,0,0,4.6.23,4.61,4.61,0,0,0,1.51-.34l1.19-3.78s2-3.79-.27-4.54-3.2,1.78-5,0-2.25-2.45-4.08-1.43S125,80,122,80.05s-3.07,1.28-3.07,2.66a2.38,2.38,0,0,0,.6,1.26A15.33,15.33,0,0,1,122.81,93.08Z" fill="#24285b"></path><path d="M127.4,91.81s-.09-1.92-1.53-1.74-1.33,3,.64,3.17Z" fill="#f4a28c"></path><path d="M132.77,90.54l1.44,1.89a.79.79,0,0,1-.46,1.26l-1.9.41Z" fill="#f4a28c"></path><path d="M128.54,97.32s-1.14-.2-3.2-2.06c0,0-.3,3.24,3.42,5.63Z" fill="#ce8172" opacity="0.31"></path><path d="M89.22,111.77A17.31,17.31,0,0,1,104.51,103c12.47.11,35.12,1.56,46.58,10,16.34,12,8,28.66-5.66,47s-13.58,29.66-13.58,29.66L97.09,188S72.4,141.76,89.22,111.77Z" fill="#68e1fd"></path><path d="M97.09,188l12.67,27.33-2.33,31.33h6.33l7.57-25.54a22.09,22.09,0,0,0,0-12.66l-3.86-12.8,14.42-6Z" fill="#24285b"></path><path d="M131.85,189.66l20.91,57h-8.33s-16.87-38.87-30-48.66v-3.67Z" fill="#24285b"></path><path d="M112,113s5.86,18.66-5.14,30.35-3.55,36.37,3.35,45.28L98.07,188s-13.22-18-14.68-49.22S112,113,112,113Z" opacity="0.08"></path><path d="M110.78,120.33c4.31-8.65-3.1-18.63-12.65-17.18-16,2.4-39.09,10.75-42.88,38.64-5.89,43.28,35.5,45.14,35.5,45.14l.91-5.14S81.8,177,75.34,168.19c-8.15-11.06-2.34-26.92,10.94-30.43C95,135.47,105.65,130.61,110.78,120.33Z" fill="#68e1fd"></path><path d="M110.78,120.33c4.31-8.65-3.1-18.63-12.65-17.18-16,2.4-39.09,10.75-42.88,38.64-5.89,43.28,35.5,45.14,35.5,45.14l.91-5.14S81.8,177,75.34,168.19c-8.15-11.06-2.34-26.92,10.94-30.43C95,135.47,105.65,130.61,110.78,120.33Z" fill="#fff" opacity="0.46"></path><path d="M91.66,181.79s7.76-.08,6.21,7.87-7.12-2.73-7.12-2.73Z" fill="#f4a28c"></path><rect x="131.62" y="118.46" width="13.8" height="21.19" transform="translate(41.45 -33.49) rotate(16.18)" fill="#ffd200"></rect><path d="M133.11,138.51s.67-8.89,9.54-6.06l-.45,8.69Z" opacity="0.08"></path><path d="M168.22,173.24a6.85,6.85,0,0,0,9.9-8.85,27.68,27.68,0,0,0-6.85-8.2c-13.9-11.86-21.87-16.26-21.87-16.26l-5.65,4S153.65,163.7,168.22,173.24Z" fill="#68e1fd"></path><path d="M168.22,173.24a6.85,6.85,0,0,0,9.9-8.85,27.68,27.68,0,0,0-6.85-8.2c-13.9-11.86-21.87-16.26-21.87-16.26l-5.65,4S153.65,163.7,168.22,173.24Z" fill="#fff" opacity="0.46"></path><path d="M149.4,139.93s-3.25-6.48-6.75-7.48-6.08,4.46,1.88,10.9Z" fill="#f4a28c"></path><rect x="222.79" y="118.26" width="25.53" height="21.58" fill="#adadad"></rect><rect x="222.79" y="150.59" width="25.53" height="21.58" fill="#adadad"></rect><rect x="222.79" y="181.79" width="25.53" height="52.84" fill="#fff"></rect><rect x="235.55" y="39.12" width="62.77" height="40" fill="#ffd200"></rect><rect x="214.81" y="97.63" width="25.84" height="5.37" fill="#68e1fd"></rect><rect x="214.81" y="87.89" width="25.84" height="5.37" fill="#68e1fd" opacity="0.41"></rect><rect x="247.94" y="62.51" width="8.51" height="8.51" fill="#24285b"></rect><rect x="262.28" y="53.36" width="8.51" height="17.66" fill="#24285b"></rect><rect x="277.42" y="47.21" width="8.51" height="23.81" fill="#24285b"></rect><rect x="235.55" y="79.14" width="32.1" height="10.92" opacity="0.08"></rect><path d="M296.83,237.93s-9.21-2.51-11.22-11.09c0,0,14.28-2.88,14.68,11.85Z" fill="#68e1fd" opacity="0.58"></path><path d="M298,237s-6.44-10.18-.77-19.69c0,0,10.85,6.89,6,19.71Z" fill="#68e1fd" opacity="0.73"></path><path d="M299.62,237s3.4-10.75,13.68-12.78c0,0,1.92,7-6.66,12.8Z" fill="#68e1fd"></path><polygon points="292.94 236.78 294.8 249.56 306.56 249.61 308.3 236.85 292.94 236.78" fill="#24285b"></polygon></svg>