<svg xmlns="http://www.w3.org/2000/svg" xmlns:xlink="http://www.w3.org/1999/xlink" viewBox="0 0 400 300" width="406" height="306" class="illustration styles_illustrationTablet__1DWOa"><defs><linearGradient id="linear-gradient" x1="111.47" y1="157.33" x2="88.56" y2="178.24" gradientUnits="userSpaceOnUse"><stop offset="0" stop-color="#d4a397"></stop><stop offset="1" stop-color="#fff"></stop></linearGradient><linearGradient id="linear-gradient-2" x1="117.81" y1="203.13" x2="94.9" y2="224.05" xlink:href="#linear-gradient"></linearGradient><linearGradient id="linear-gradient-3" x1="217.73" y1="206.8" x2="181.22" y2="240.13" xlink:href="#linear-gradient"></linearGradient><linearGradient id="linear-gradient-4" x1="205.5" y1="91.02" x2="181.42" y2="106.07" xlink:href="#linear-gradient"></linearGradient></defs><title>PP</title><g style="isolation: isolate;"><g id="Layer_2" data-name="Layer 2"><path d="M198.95,277.85,26.45,175.9c-5.49-3.08-10.2-8.15-4.85-11.46L194.72,64.66c2.6-1.61,6.54-2.66,9.18-1.13L385,168.62c5.49,3.19,6.48,12.1,1,15.29L221.69,277.68A22.94,22.94,0,0,1,198.95,277.85Z" fill="#ff8d8d"></path><path d="M103.23,136.13c-15.52,8.41-30.73,17.39-45.39,27.21l43.55,25.25,56.54-30.75Z" fill="url(#linear-gradient)" style="mix-blend-mode: multiply;"></path><path d="M93.76,130.09,86.94,140s22,37.63,62.27,29c0,0,27.94-3.74,39.39-24.64l-6.6-7.26s-19.8,18.36-34.77,19.36C111.15,158.91,93.76,130.09,93.76,130.09Z" fill="#68fc8f"></path><path d="M182,137.13s-19.58,18.16-34.52,19.34c.79,4.16,1.5,8.33,2.24,12.49,3.74-.61,28.33-5.28,38.89-24.57Z" fill="#606060" opacity="0.19" style="mix-blend-mode: multiply;"></path><path d="M147.48,156.47c-34.92,1.41-53.71-26.38-53.71-26.38l-4,5.82c4.27,6.72,10.82,11.86,17.13,16.55,12.73,9.46,27.75,11.57,41.64,9.8C148.18,160.27,147.86,158.45,147.48,156.47Z" fill="#ffe89f"></path><path d="M182,137.13s-19.58,18.16-34.52,19.34q.55,2.89,1.06,5.79a53.09,53.09,0,0,0,5.64-1.23,51.55,51.55,0,0,0,21.58-11.89c2.73-2.53,5.3-5.24,8-7.83l1.1-1.08Z" fill="#ffedbb"></path><path d="M182,137.13l-47.43-60,12.66,79.38S173,154.51,182,137.13Z" fill="#e91837"></path><path d="M134.57,77.11l-40.8,53s16.61,27.65,53.47,26.4Z" fill="#cc1b3d"></path><ellipse cx="128.54" cy="96.07" rx="1.29" ry="2.14" fill="#66390c"></ellipse><ellipse cx="120.5" cy="106.4" rx="1.29" ry="2.14" fill="#66390c"></ellipse><ellipse cx="132.43" cy="111.03" rx="1.29" ry="2.14" fill="#66390c"></ellipse><ellipse cx="134.57" cy="123.89" rx="1.29" ry="2.14" fill="#66390c"></ellipse><ellipse cx="121.79" cy="127.12" rx="1.29" ry="2.14" fill="#66390c"></ellipse><ellipse cx="137.29" cy="144.32" rx="1.29" ry="2.14" fill="#66390c"></ellipse><ellipse cx="113.75" cy="118.94" rx="1.29" ry="2.14" fill="#66390c"></ellipse><ellipse cx="104.68" cy="127.12" rx="1.29" ry="2.14" fill="#66390c"></ellipse><ellipse cx="121.79" cy="140.05" rx="1.29" ry="2.14" fill="#66390c"></ellipse><ellipse cx="159.58" cy="126.02" rx="1.29" ry="2.14" fill="#66390c"></ellipse><ellipse cx="152.42" cy="137.13" rx="1.29" ry="2.14" fill="#66390c"></ellipse><ellipse cx="169.33" cy="141.46" rx="1.29" ry="2.14" fill="#66390c"></ellipse><ellipse cx="152.42" cy="116.41" rx="1.29" ry="2.14" fill="#66390c"></ellipse><ellipse cx="144.05" cy="101.52" rx="1.29" ry="2.14" fill="#66390c"></ellipse><path d="M109.54,181.89C97.28,188.52,85.23,195.53,73.48,203c6.18,5.91,14.13,9.43,21.67,13.37,7.37,3.85,13.87,9,20.79,13.49l42.16-22.92a.79.79,0,0,1,.15-.79,7.48,7.48,0,0,0,.57-.73.71.71,0,0,1,.22-.65,2.3,2.3,0,0,1,.48-.39.83.83,0,0,1,.73,0,17.45,17.45,0,0,1,1.76-1.66Z" fill="url(#linear-gradient-2)" style="mix-blend-mode: multiply;"></path><path d="M204.61,173c-24.73,13.39-49,27.71-72.32,43.36l69.4,40.23,90.1-49Z" fill="url(#linear-gradient-3)" style="mix-blend-mode: multiply;"></path><path d="M81.72,92.64a.5.5,0,0,0,0,1A.5.5,0,0,0,81.72,92.64Z" fill="#66390c" style="mix-blend-mode: multiply;"></path><path d="M93.07,181.35l-5.68,8.24s18.31,31.31,51.82,24.17c0,0,23.26-3.11,32.78-20.51l-5.49-6S150,202.48,137.57,203.32C107.54,205.33,93.07,181.35,93.07,181.35Z" fill="#68fc8f"></path><path d="M166.5,187.21s-16.3,15.11-28.73,16.09c.66,3.46,1.24,6.93,1.86,10.39,3.11-.51,23.58-4.39,32.36-20.44Z" fill="#606060" opacity="0.19" style="mix-blend-mode: multiply;"></path><path d="M137.77,203.3c-29.06,1.18-44.7-22-44.7-22l-3.33,4.84c3.55,5.59,9,9.87,14.26,13.77,10.59,7.87,23.09,9.63,34.65,8.16C138.36,206.46,138.09,205,137.77,203.3Z" fill="#ffe89f"></path><path d="M166.5,187.21s-16.3,15.11-28.73,16.09q.46,2.41.88,4.82a44.18,44.18,0,0,0,4.69-1,42.9,42.9,0,0,0,18-9.9c2.27-2.11,4.41-4.36,6.63-6.52l.91-.9Z" fill="#ffedbb"></path><path d="M166.5,187.21,127,137.26l10.54,66.06S159,201.67,166.5,187.21Z" fill="#e91837"></path><path d="M127,137.26l-34,44.09s13.82,23,44.5,22Z" fill="#cc1b3d"></path><ellipse cx="122.02" cy="153.04" rx="1.08" ry="1.78" fill="#66390c"></ellipse><ellipse cx="115.32" cy="161.63" rx="1.08" ry="1.78" fill="#66390c"></ellipse><ellipse cx="125.25" cy="165.48" rx="1.08" ry="1.78" fill="#66390c"></ellipse><ellipse cx="127.03" cy="176.18" rx="1.08" ry="1.78" fill="#66390c"></ellipse><ellipse cx="116.4" cy="178.88" rx="1.08" ry="1.78" fill="#66390c"></ellipse><ellipse cx="129.29" cy="193.19" rx="1.08" ry="1.78" fill="#66390c"></ellipse><ellipse cx="109.71" cy="172.07" rx="1.08" ry="1.78" fill="#66390c"></ellipse><ellipse cx="102.16" cy="178.88" rx="1.08" ry="1.78" fill="#66390c"></ellipse><ellipse cx="116.4" cy="189.64" rx="1.08" ry="1.78" fill="#66390c"></ellipse><ellipse cx="147.84" cy="177.96" rx="1.08" ry="1.78" fill="#66390c"></ellipse><ellipse cx="141.88" cy="187.21" rx="1.08" ry="1.78" fill="#66390c"></ellipse><ellipse cx="155.96" cy="190.81" rx="1.08" ry="1.78" fill="#66390c"></ellipse><ellipse cx="141.88" cy="169.96" rx="1.08" ry="1.78" fill="#66390c"></ellipse><ellipse cx="134.92" cy="157.57" rx="1.08" ry="1.78" fill="#66390c"></ellipse><path d="M205.65,185.67c34.37-9.42,92-57.27,106.71-69.84a55.89,55.89,0,0,0-13.47-10.92c-.73-.42-1.46-.82-2.2-1.2C217.55,136.43,205.65,185.67,205.65,185.67Z" fill="#68fc8f"></path><path d="M325.66,143c-41,32.64-120,42.68-120,42.68,74.79,5.52,108.11-13.56,119.07-22.12.18-.72.36-1.43.52-2.16A48.76,48.76,0,0,0,325.66,143Z" fill="#68fc8f"></path><path d="M205.65,185.67s4-59.62,61.88-89.1a68.75,68.75,0,0,0-28.77,6.08l-1.54.71c-2.43,1.15-4.72,2.34-6.92,3.56C219.34,117.67,203.49,141.09,205.65,185.67Z" fill="#68fc8f"></path><path d="M205.65,185.67c43.21,22.77,74.22,23.94,86.74,21a85.5,85.5,0,0,0,20.42-19.11C266.46,207.17,205.65,185.67,205.65,185.67Z" fill="#68fc8f"></path><path d="M205.65,185.67s-11.45-24-7.85-47.66a60.31,60.31,0,0,0-7.13,29.86C194.21,174.9,199.27,182.54,205.65,185.67Z" fill="#68fc8f"></path><path d="M205.65,185.67A85.84,85.84,0,0,0,222,215.82c10.61,5.34,24.27,8.1,41,4C230.55,212.41,205.65,185.67,205.65,185.67Z" fill="#68fc8f"></path><path d="M196.21,191.38c.18.34.36.66.54,1a57.44,57.44,0,0,0,5.31,7.45l3.6-14.13Z" fill="#68fc8f"></path><path d="M208.63,187.23A7.64,7.64,0,0,0,211,189c1.16.42.94-.16,2.52.94a36.58,36.58,0,0,0,5.82,3.3c2.3,1,2.59.1,3.88,1.36s4.56,3.38,7.31,3.61,3.52-.32,5.94,1,4.93,4.32,8.71,4.47,3.53-.54,6.57.38,5.16,3.2,8.88,3.09,3.89-1.19,7.15,0,7,2.68,9.67,2.23,4.06-1.43,6.23-.51a10.7,10.7,0,0,0,3.5.95l5.2-3.22-13.56-1.56" fill="#68fc8f"></path><path d="M205.45,180.81a4.67,4.67,0,0,1-.51-2.48c.12-1.64.38-1.32.25-2.87s-.58-3.6,0-5.67a23.12,23.12,0,0,0,.46-6.43c-.07-1.35-.51-2.34.28-4.18a11.31,11.31,0,0,0,1-3.83c.23-1.52-.42-3,.27-4.85s1.16-3,1.51-4.2-.67-2.87.47-5.86,1.81-3,2.87-5.53.32-4,1.46-5.53a36.4,36.4,0,0,0,3.19-5.85c1.4-2.81,1.62-5,3.42-5.76s2.37-4.09,3.83-5.53,4-4,4.09-4l2.31-1.32" fill="#68fc8f"></path><g opacity="0.52"><path d="M205.65,185.67c34.37-9.42,92-57.27,106.71-69.84a55.89,55.89,0,0,0-13.47-10.92c-.73-.42-1.46-.82-2.2-1.2C217.55,136.43,205.65,185.67,205.65,185.67Z" fill="#093e3e"></path><path d="M325.66,143c-41,32.64-120,42.68-120,42.68,74.79,5.52,108.11-13.56,119.07-22.12.18-.72.36-1.43.52-2.16A48.76,48.76,0,0,0,325.66,143Z" fill="#093e3e"></path><path d="M205.65,185.67s4-59.62,61.88-89.1a68.75,68.75,0,0,0-28.77,6.08l-1.54.71c-2.43,1.15-4.72,2.34-6.92,3.56C219.34,117.67,203.49,141.09,205.65,185.67Z" fill="#093e3e"></path><path d="M205.65,185.67c43.21,22.77,74.22,23.94,86.74,21a85.5,85.5,0,0,0,20.42-19.11C266.46,207.17,205.65,185.67,205.65,185.67Z" fill="#093e3e"></path><path d="M205.65,185.67s-11.45-24-7.85-47.66a60.31,60.31,0,0,0-7.13,29.86C194.21,174.9,199.27,182.54,205.65,185.67Z" fill="#093e3e"></path><path d="M205.65,185.67A85.84,85.84,0,0,0,222,215.82c10.61,5.34,24.27,8.1,41,4C230.55,212.41,205.65,185.67,205.65,185.67Z" fill="#093e3e"></path><path d="M196.21,191.38c.18.34.36.66.54,1a57.44,57.44,0,0,0,5.31,7.45l3.6-14.13Z" fill="#093e3e"></path><path d="M208.63,187.23A7.64,7.64,0,0,0,211,189c1.16.42.94-.16,2.52.94a36.58,36.58,0,0,0,5.82,3.3c2.3,1,2.59.1,3.88,1.36s4.56,3.38,7.31,3.61,3.52-.32,5.94,1,4.93,4.32,8.71,4.47,3.53-.54,6.57.38,5.16,3.2,8.88,3.09,3.89-1.19,7.15,0,7,2.68,9.67,2.23,4.06-1.43,6.23-.51a10.7,10.7,0,0,0,3.5.95l5.2-3.22-13.56-1.56" fill="#093e3e"></path><path d="M205.45,180.81a4.67,4.67,0,0,1-.51-2.48c.12-1.64.38-1.32.25-2.87s-.58-3.6,0-5.67a23.12,23.12,0,0,0,.46-6.43c-.07-1.35-.51-2.34.28-4.18a11.31,11.31,0,0,0,1-3.83c.23-1.52-.42-3,.27-4.85s1.16-3,1.51-4.2-.67-2.87.47-5.86,1.81-3,2.87-5.53.32-4,1.46-5.53a36.4,36.4,0,0,0,3.19-5.85c1.4-2.81,1.62-5,3.42-5.76s2.37-4.09,3.83-5.53,4-4,4.09-4l2.31-1.32" fill="#093e3e"></path></g><path d="M205.65,185.67s24.9,26.75,57.32,34.16a94.29,94.29,0,0,0,24.23-10q2.64-1.5,5.2-3.22C279.87,209.61,248.86,208.43,205.65,185.67Z" fill="#68fc8f"></path><path d="M190.67,167.86c.21,10,2.81,18.45,5.53,23.52l9.44-5.72C199.27,182.54,194.21,174.9,190.67,167.86Z" fill="#68fc8f"></path><path d="M205.65,185.67c-2.16-44.57,13.69-68,24.66-78.75C213.83,116.06,203.7,127,197.8,138,194.2,161.67,205.65,185.67,205.65,185.67Z" fill="#68fc8f"></path><path d="M325.66,143a52.1,52.1,0,0,0-4.13-13.33,55.36,55.36,0,0,0-9.17-13.83C297.63,128.4,240,176.25,205.65,185.67,205.65,185.67,284.64,175.64,325.66,143Z" fill="#68fc8f"></path><path d="M202.05,199.8a63.49,63.49,0,0,0,20,16,85.84,85.84,0,0,1-16.36-30.15Z" fill="#68fc8f"></path><path d="M205.65,185.67s60.81,21.51,107.16,1.86a67.82,67.82,0,0,0,11.91-24C313.76,172.11,280.44,191.19,205.65,185.67Z" fill="#68fc8f"></path><path d="M205.65,185.67s11.9-49.24,91-82a63.88,63.88,0,0,0-29.16-7.14C209.66,126,205.65,185.67,205.65,185.67Z" fill="#68fc8f"></path><path d="M207.17,181.24a6.51,6.51,0,0,0,2.76-4.31c.54-3-.1-2.08,1.71-4.08s2.86-2.57,4.29-5.62,1.71-6,4.29-7.43a13.49,13.49,0,0,0,4.86-4.1c1.91-2.19,2.27-5.81,5.23-8.38s8.11-5.24,9.82-7.72,3.43-5.14,5.81-6.1,6.57-4.19,9.91-7.15,5.24-4.76,9.34-6.19,7.47-2.38,8.67-4.33,2.23-2.53,4.18-3.52,5.06-.63,7.06-1.58,2.19-3.24,4.48-3.81,8-2.74,8-2.74l-2.54-1.3L250.61,123l-10.19,7.72L236,135.31,230.31,143l-14,15.66-5.91,8.77-2,6.57Z" fill="#68fc8f"></path><path d="M208.52,183.52s3.42-1.37,6.62-2.29,4.08-.69,6.07-2.35,1.65-3.2,5.19-4.08,6.29-1.41,8.83-4.12.66-4.37,5.85-6.36,5.41-.22,9.27-3,5.33-6.07,8.9-7.5,5.76-.88,8.3-3.86,2.66-6.36,6.63-7.93,4.85-1,7.83-3.33,2.76-5.3,7.28-7.39,6.77-2.54,7.41-4,4.85-6.28,7.81-6.84,7.86-4.7,7.86-4.7L302.07,129.9,256,162.67l-24.71,14.26-12,4.83-10.7,3.05Z" fill="#68fc8f"></path><path d="M210.35,185a4.6,4.6,0,0,0,2.24.12c1.55-.19,2.24-.71,3.64-.87s5,.35,9-.86a51.75,51.75,0,0,1,8.37-2.15c3.72-.65,5.65-.36,8.16-1.08s4.44-2.29,6.8-2.58,6.27.14,10.4-1.65,7.28-3.87,10.21-4.44a90,90,0,0,0,13.67-3.64c6.9-2.36,5.68-4.62,12.18-6s10.35-1.61,14.61-4.85,3.25-5.17,8.32-6.24a16.25,16.25,0,0,0,8.1-4.45l-.78-5.18-67.79,26.74-49,16.95" fill="#68fc8f"></path><path d="M209.65,185.93a57.89,57.89,0,0,1,5.92-.26,46.3,46.3,0,0,0,6.93.26,97.17,97.17,0,0,1,11.26-.28c6.65.19,7.49,1.53,11.61,0s2.52-1.86,7.49-1.72,11.26.35,16.23-1,9.86-2.87,12.8-2.8,9.44-1.75,13.85-3.43,5.81-2.31,8.67-2.8,9.74-5.55,13.64-6.93a20.39,20.39,0,0,0,7-4.59l-1,3.58-23.13,13.8-45,8.37-19.47,2Z" fill="#68fc8f"></path><path d="M209.28,186.77a11.63,11.63,0,0,0,3.4,1.66,94,94,0,0,1,9.85,2.53c2.4.93,4.33,2.13,6.92,2.2a60.08,60.08,0,0,1,12.18,1.66,30.27,30.27,0,0,0,10.12,1.26,42.15,42.15,0,0,1,12.31.65,23.34,23.34,0,0,0,11.19,0c2.93-.72,9-2,13.38-1.72s6.52-.2,9.25-1.33S302.23,191,305,191s6.79-2.26,6.79-2.26l1-1.17-68,3.85-16.71-1.27Z" fill="#68fc8f"></path><path d="M207.49,187.6s-.3.22.82,1.38,2.52,1.55,3.72,3.11.82,2.6,2.29,3.29a18.5,18.5,0,0,1,3.8,2c1.47,1.07,2,2.85,3.89,3.71a15.47,15.47,0,0,1,3.64,1.82c1,.82,1.21,2.12,3.93,3.37s3.44.86,4.85,2.08,2.89,3.33,5.65,4.24,3,.65,5.06,1.47,3.33,2.94,5.62,3.2,4.15-.25,5.77.78A24.51,24.51,0,0,0,262,220l1.68-.38-21.48-9.26L222,199.49l-8.77-7.22-3.16-2.94Z" fill="#68fc8f"></path><path d="M206.41,188.11a2.71,2.71,0,0,1,.68,1.12c.28.79.35,1.56.5,1.82a4.33,4.33,0,0,1,.87,1.58,5.92,5.92,0,0,0,.71,2.34,6.12,6.12,0,0,1,1,1.61,7.58,7.58,0,0,0,.55,1.73c.35.62.68.62,1,1.26a17.56,17.56,0,0,0,1.25,3.17c.72,1.09,2.28,2.11,3.27,4.22s1.19,2.86,2.52,4a11.13,11.13,0,0,1,3,3.6,2.84,2.84,0,0,1,.31,1.26l-3-2.15-7.41-10.34L206.41,190Z" fill="#68fc8f"></path><path d="M268,96.58h-3.1s-2.23,1.65-3.77,2.89-3.27,1.2-6,2.57-1.74,2.15-3.39,3.43S248,107.2,246,108.31s-1.45,2.57-3.6,4.59-3,2.07-5.21,3.81-1.66,2.81-3.35,5-3.19,3-5.17,4.72-1.78,3.89-3.27,5.79-2.57,3.81-4.3,5-1.7,3.81-2.94,6.62-1.53,4.52-3.48,6.29-1,3.43-2,6-1.86,4.88-2.69,5.69-.5,3-1.08,5.48a24.79,24.79,0,0,1-1.52,4.72,7.73,7.73,0,0,0-.28,3.19c.06,1.32-.73,2.48-.94,3.43a6.56,6.56,0,0,0,0,2.16l3.42-7.73,8-16.78L229.67,131l17.93-16.41,6.08-5.77,7.9-6Z" fill="#68fc8f"></path><path d="M204.27,181.93s-.93-.11-1.76-2.31-.56-4.42-1.58-6-1.95-2.88-2.09-5,.28-1.76-.42-4.59-1.34-2.55-1.32-4.41.86-4.13,0-6.73-1.14-3.25-1-4.69,1.27-5,.33-7.56L197.8,138l1,6.68,1.39,20.13,3.35,13.9Z" fill="#68fc8f"></path><path d="M202.84,183.85l-1.7-1.92c-.9-1-2.38-1.47-3.2-3.43s-.77-2.83-2.53-4-1.13-2.64-2.68-4.41a22.54,22.54,0,0,1-2.07-2.64l0,1.13,4.5,9.31,3,3.38Z" fill="#68fc8f"></path><path d="M203.46,186.89s.64.74-1.4,2-1.81,1.41-3.36,1.68a2.6,2.6,0,0,0-2,1.81L196,191Z" fill="#68fc8f"></path><path d="M205,188a1.92,1.92,0,0,0-.74,1.27,12.58,12.58,0,0,0-.72,2.63c-.18,1.68-.75,1-.92,2.38s.41,1.68,0,2.83a6.05,6.05,0,0,1-1.15,1.93l.86,1.15,2.09-4.14,2-6.06Z" fill="#68fc8f"></path><path d="M206.23,180.81a4.15,4.15,0,0,0-4,2.6,12.69,12.69,0,0,1-8.41-6,1.09,1.09,0,0,0-2,.54c-.05,1.73-.79,3.29.06,4.93a5.91,5.91,0,0,0,3.52,2.68,14.38,14.38,0,0,0,7.34.87,4.35,4.35,0,0,0,3.49,1.64,3.68,3.68,0,1,0,0-7.3Zm-12.15.45a1.18,1.18,0,0,0-.4.16,3.7,3.7,0,0,1,0-.62C193.78,181,193.93,181.12,194.08,181.27Z" fill="#874518"></path><path d="M197.8,138s-18.47,34.12,4.25,61.79c24.65,30,73.13,31.49,110.75-12.27C312.81,187.53,210,219.9,197.8,138Z" fill="#606060" opacity="0.19" style="mix-blend-mode: multiply;"></path><path d="M207.53,95.09l-5.12-3.7-31.89,13.68c3.33,1.71,8.18,4.64,12.86,7.38C192.62,107.7,199,101,207.53,95.09Z" fill="url(#linear-gradient-4)" style="mix-blend-mode: multiply;"></path><rect x="202.4" y="57.72" width="5.8" height="38.43" rx="1.36" ry="1.36" fill="#bc532a"></rect><path d="M219.62,65.58c-1.34-5.8-7.27-31.35-17.8-23.84-5.39,3.85-6.91,9.86-9.07,15.74-1.79,4.87-3.27,10-3.35,15.22C189.23,83.34,200,84.64,208.32,84.6c4.77,0,11.58-2.84,12.69-8,.67-3.12-.47-6.81-1.14-9.87Q219.75,66.14,219.62,65.58Z" fill="#2c9135"></path><path d="M220.12,66.71q-.12-.57-.25-1.13c-1.18-5.13-6-25.7-14.33-25.2,2.48,10.85,6.15,22.3,4.19,33.4a25.38,25.38,0,0,1-4.43,10.75c1.11.06,2.21.07,3.26.07,4.77,0,11.58-2.84,12.69-8C221.93,73.45,220.79,69.77,220.12,66.71Z" fill="#156819"></path></g></g></svg>