<svg xmlns="http://www.w3.org/2000/svg" viewBox="0 0 158.78 51.6"><defs><style>.cls-1{fill:#637582;}.cls-2{fill:#94a5af;}.cls-3{fill:#455760;}.cls-4{fill:#eba42c;}.cls-5{fill:#d38a20;}.cls-6,.cls-7{fill:none;stroke:#3e3127;stroke-miterlimit:10;}.cls-6{stroke-width:4px;}.cls-7{stroke-width:5px;}</style></defs><title>Asset 34</title><g id="Layer_2" data-name="Layer 2"><g id="Layer_1-2" data-name="Layer 1"><rect class="cls-1" x="2.03" y="2.97" width="153.78" height="46.6" rx="19.32"/><path class="cls-2" d="M35.72,50H26.45a23.48,23.48,0,0,1,0-47h9.27a23.48,23.48,0,0,0,0,47Z"/><path class="cls-3" d="M154.63,26A21.68,21.68,0,0,1,133,47.69H75.54C86.6,33.85,88.12,17.63,86.61,4.34H133A21.68,21.68,0,0,1,154.63,26Z"/><circle class="cls-3" cx="82.66" cy="34.65" r="9.01"/><circle class="cls-3" cx="66.61" cy="27.08" r="4.02"/><circle class="cls-4" cx="36.84" cy="25.98" r="16.01"/><path class="cls-5" d="M38.51,8.84c12.81,0,22.13,15.08,11.15,28.45C43.68,41.09,38,41.65,33.2,40a16,16,0,0,0,0-30.21A15.88,15.88,0,0,1,38.51,8.84Z"/><circle class="cls-6" cx="37.4" cy="25.98" r="16.01"/><rect class="cls-7" x="2.5" y="2.5" width="153.78" height="46.6" rx="23.3"/></g></g></svg>